<svg width="260" height="158" viewBox="0 0 260 158" fill="none" xmlns="http://www.w3.org/2000/svg">
<path d="M159.08 32.7289C148.501 33.3425 138.325 37.0101 129.787 43.2876C121.248 37.0101 111.073 33.3425 100.493 32.7289V42.3632C98.7639 42.3667 97.1067 43.0567 95.886 44.2817C94.6653 45.5067 93.981 47.1663 93.9836 48.8957V52.1636C93.9836 55.7732 100.493 59.3503 100.493 59.3503V65.8827C109.138 66.4387 117.475 69.3051 124.634 74.1826C126.442 75.437 128.164 76.8115 129.787 78.2967C131.41 76.8115 133.132 75.437 134.939 74.1826C142.098 69.3051 150.436 66.4387 159.08 65.8827V58.696C160.81 58.6926 162.467 58.0025 163.688 56.7775C164.908 55.5525 165.593 53.8929 165.59 52.1636V48.8957C165.593 47.1663 164.908 45.5067 163.688 44.2817C162.467 43.0567 160.81 42.3667 159.08 42.3632V32.7289ZM129.787 69.9057C123.036 64.9585 115.242 61.6227 107.003 60.1542V40.1369C113.318 41.409 119.313 43.9347 124.634 47.5645C126.442 48.8189 128.164 50.1933 129.787 51.6786C131.41 50.1933 133.132 48.8189 134.939 47.5645C140.26 43.9335 146.256 41.4068 152.571 40.1337V60.1542C144.331 61.6227 136.537 64.9585 129.787 69.9057ZM126.532 26.2192H133.042V29.474H126.532V26.2192ZM126.532 13.1998H133.042V16.4547H126.532V13.1998Z" fill="#9F77C8"/>
<path d="M126.532 32.7289H133.042V35.9837H126.532V32.7289ZM120.022 16.4546C120.886 16.4546 121.713 16.1117 122.324 15.5013C122.934 14.8909 123.277 14.063 123.277 13.1998C123.28 12.7758 123.199 12.3554 123.038 11.9631C122.877 11.5708 122.64 11.2144 122.34 10.9145C122.04 10.6147 121.684 10.3775 121.292 10.2166C120.899 10.0557 120.479 9.97447 120.055 9.9775C119.63 9.97536 119.208 10.057 118.814 10.2178C118.421 10.3786 118.062 10.6153 117.76 10.9145C117.15 11.5188 116.804 12.3409 116.8 13.1998C116.796 14.0587 117.133 14.8842 117.737 15.4946C118.341 16.105 119.163 16.4503 120.022 16.4546Z" fill="#9F77C8"/>
<path d="M139.551 16.4546C141.349 16.4546 142.806 14.9973 142.806 13.1997C142.806 11.4021 141.349 9.94489 139.551 9.94489C137.754 9.94489 136.297 11.4021 136.297 13.1997C136.297 14.9973 137.754 16.4546 139.551 16.4546Z" fill="#9F77C8"/>
<path d="M142.806 26.219H116.768C114.179 26.2165 111.696 25.1869 109.866 23.3562C108.035 21.5256 107.006 19.0434 107.003 16.4545V9.94483C107.006 7.35591 108.035 4.87376 109.866 3.04312C111.696 1.21247 114.179 0.182883 116.768 0.180298L142.806 0.180298C145.395 0.182883 147.877 1.21247 149.708 3.04312C151.539 4.87376 152.568 7.35591 152.571 9.94483V16.4545C152.568 19.0434 151.539 21.5256 149.708 23.3562C147.877 25.1869 145.395 26.2165 142.806 26.219ZM116.768 6.68998C115.905 6.69085 115.077 7.03404 114.467 7.64426C113.857 8.25447 113.514 9.08185 113.513 9.94483V16.4545C113.514 17.3175 113.857 18.1449 114.467 18.7551C115.077 19.3653 115.905 19.7085 116.768 19.7094H142.806C143.669 19.7085 144.497 19.3653 145.107 18.7551C145.717 18.1449 146.06 17.3175 146.061 16.4545V9.94483C146.06 9.08185 145.717 8.25447 145.107 7.64426C144.497 7.03404 143.669 6.69085 142.806 6.68998H116.768Z" fill="#9F77C8"/>
<path d="M16.0041 135.638C13.5336 135.638 11.3138 135.209 9.34466 134.349C7.41128 133.454 5.88964 132.237 4.77974 130.697C3.66984 129.122 3.09698 127.314 3.06118 125.273H8.27056C8.44957 127.028 9.16564 128.513 10.4188 129.731C11.7077 130.912 13.5694 131.503 16.0041 131.503C18.3313 131.503 20.1572 130.93 21.482 129.784C22.8425 128.603 23.5228 127.099 23.5228 125.273C23.5228 123.841 23.1289 122.677 22.3412 121.782C21.5536 120.887 20.569 120.207 19.3875 119.742C18.206 119.276 16.6127 118.775 14.6077 118.238C12.1373 117.593 10.1502 116.949 8.64649 116.304C7.17856 115.66 5.90754 114.658 4.83344 113.297C3.79515 111.901 3.276 110.039 3.276 107.712C3.276 105.671 3.79515 103.863 4.83344 102.288C5.87174 100.712 7.32177 99.4949 9.18354 98.6356C11.0811 97.7763 13.2472 97.3467 15.6818 97.3467C19.1906 97.3467 22.0548 98.2238 24.2746 99.9782C26.5302 101.733 27.8012 104.06 28.0877 106.96H22.7172C22.5382 105.528 21.7863 104.275 20.4616 103.2C19.1369 102.091 17.3825 101.536 15.1985 101.536C13.1577 101.536 11.4929 102.073 10.2039 103.147C8.91502 104.185 8.27056 105.653 8.27056 107.551C8.27056 108.911 8.64649 110.021 9.39836 110.88C10.186 111.74 11.1348 112.402 12.2447 112.867C13.3904 113.297 14.9837 113.798 17.0245 114.371C19.4949 115.051 21.482 115.732 22.9857 116.412C24.4894 117.056 25.7784 118.077 26.8525 119.473C27.9266 120.834 28.4636 122.695 28.4636 125.058C28.4636 126.884 27.9803 128.603 27.0136 130.214C26.0469 131.825 24.6148 133.132 22.7172 134.135C20.8196 135.137 18.5819 135.638 16.0041 135.638ZM41.6167 109.86V127.207C41.6167 128.639 41.921 129.659 42.5297 130.268C43.1383 130.841 44.1945 131.127 45.6983 131.127H49.2965V135.262H44.8927C42.1716 135.262 40.1309 134.636 38.7703 133.383C37.4098 132.13 36.7295 130.071 36.7295 127.207V109.86H32.9165V105.832H36.7295V98.4208H41.6167V105.832H49.2965V109.86H41.6167ZM81.3185 105.832V135.262H76.4313V130.912C75.5004 132.416 74.1936 133.597 72.5109 134.457C70.8639 135.28 69.038 135.692 67.033 135.692C64.7416 135.692 62.6829 135.227 60.8569 134.296C59.0309 133.329 57.5809 131.897 56.5068 129.999C55.4685 128.102 54.9494 125.792 54.9494 123.071V105.832H59.7828V122.427C59.7828 125.327 60.5168 127.565 61.9847 129.14C63.4526 130.68 65.4576 131.449 67.9997 131.449C70.6133 131.449 72.672 130.644 74.1757 129.033C75.6795 127.421 76.4313 125.076 76.4313 121.997V105.832H81.3185ZM87.7442 120.44C87.7442 117.432 88.3528 114.801 89.5702 112.545C90.7875 110.254 92.4523 108.481 94.5647 107.228C96.7129 105.975 99.1117 105.349 101.761 105.349C104.053 105.349 106.183 105.886 108.152 106.96C110.121 107.998 111.625 109.377 112.663 111.095V95.5207H117.604V135.262H112.663V129.731C111.697 131.485 110.264 132.935 108.367 134.081C106.469 135.191 104.249 135.746 101.707 135.746C99.0938 135.746 96.7129 135.101 94.5647 133.812C92.4523 132.523 90.7875 130.715 89.5702 128.388C88.3528 126.061 87.7442 123.411 87.7442 120.44ZM112.663 120.493C112.663 118.274 112.216 116.34 111.321 114.693C110.426 113.046 109.208 111.793 107.669 110.934C106.165 110.039 104.5 109.591 102.674 109.591C100.848 109.591 99.1833 110.021 97.6796 110.88C96.1759 111.74 94.9764 112.993 94.0814 114.64C93.1863 116.287 92.7387 118.22 92.7387 120.44C92.7387 122.695 93.1863 124.665 94.0814 126.347C94.9764 127.994 96.1759 129.265 97.6796 130.16C99.1833 131.02 100.848 131.449 102.674 131.449C104.5 131.449 106.165 131.02 107.669 130.16C109.208 129.265 110.426 127.994 111.321 126.347C112.216 124.665 112.663 122.713 112.663 120.493ZM151.212 105.832L133.489 149.118H128.441L134.241 134.94L122.372 105.832H127.796L137.034 129.677L146.163 105.832H151.212ZM184.964 97.83V135.262H180.077V118.292H161.012V135.262H156.124V97.83H161.012V114.264H180.077V97.83H184.964ZM219.409 105.832V135.262H214.522V130.912C213.591 132.416 212.284 133.597 210.602 134.457C208.955 135.28 207.129 135.692 205.124 135.692C202.832 135.692 200.774 135.227 198.948 134.296C197.122 133.329 195.672 131.897 194.598 129.999C193.559 128.102 193.04 125.792 193.04 123.071V105.832H197.874V122.427C197.874 125.327 198.608 127.565 200.076 129.14C201.544 130.68 203.548 131.449 206.091 131.449C208.704 131.449 210.763 130.644 212.267 129.033C213.77 127.421 214.522 125.076 214.522 121.997V105.832H219.409ZM232.548 111.31C233.551 109.556 235.019 108.123 236.952 107.014C238.885 105.904 241.087 105.349 243.558 105.349C246.207 105.349 248.588 105.975 250.7 107.228C252.813 108.481 254.478 110.254 255.695 112.545C256.912 114.801 257.521 117.432 257.521 120.44C257.521 123.411 256.912 126.061 255.695 128.388C254.478 130.715 252.795 132.523 250.647 133.812C248.534 135.101 246.171 135.746 243.558 135.746C241.016 135.746 238.778 135.191 236.845 134.081C234.947 132.971 233.515 131.557 232.548 129.838V135.262H227.661V95.5207H232.548V111.31ZM252.526 120.44C252.526 118.22 252.079 116.287 251.184 114.64C250.289 112.993 249.071 111.74 247.532 110.88C246.028 110.021 244.363 109.591 242.537 109.591C240.747 109.591 239.082 110.039 237.543 110.934C236.039 111.793 234.822 113.064 233.891 114.747C232.996 116.394 232.548 118.309 232.548 120.493C232.548 122.713 232.996 124.665 233.891 126.347C234.822 127.994 236.039 129.265 237.543 130.16C239.082 131.02 240.747 131.449 242.537 131.449C244.363 131.449 246.028 131.02 247.532 130.16C249.071 129.265 250.289 127.994 251.184 126.347C252.079 124.665 252.526 122.695 252.526 120.44Z" fill="#30C5FF"/>
</svg>
